<svg width="1600" height="900" viewBox="0 0 1600 900" xmlns="http://www.w3.org/2000/svg">
  <defs>
    <linearGradient id="bg" x1="0" y1="0" x2="1" y2="1">
      <stop offset="0%" stop-color="#0b1020"/>
      <stop offset="50%" stop-color="#13233f"/>
      <stop offset="100%" stop-color="#1b0f2e"/>
    </linearGradient>
    <radialGradient id="glowA" cx="0.2" cy="0.25" r="0.55">
      <stop offset="0%" stop-color="#2a6bff" stop-opacity="0.45"/>
      <stop offset="100%" stop-color="#2a6bff" stop-opacity="0"/>
    </radialGradient>
    <radialGradient id="glowB" cx="0.85" cy="0.7" r="0.5">
      <stop offset="0%" stop-color="#8b3dff" stop-opacity="0.35"/>
      <stop offset="100%" stop-color="#8b3dff" stop-opacity="0"/>
    </radialGradient>
  </defs>
  <rect width="1600" height="900" fill="url(#bg)"/>
  <rect width="1600" height="900" fill="url(#glowA)"/>
  <rect width="1600" height="900" fill="url(#glowB)"/>
  <g opacity="0.18" stroke="#9fc4ff" stroke-width="1">
    <path d="M0 700 C 320 620, 620 760, 980 680 C 1220 630, 1440 720, 1600 690" fill="none"/>
    <path d="M0 780 C 360 700, 700 830, 1050 760 C 1300 710, 1490 790, 1600 770" fill="none"/>
    <path d="M0 560 C 280 500, 560 620, 900 560 C 1220 500, 1450 590, 1600 560" fill="none"/>
  </g>
</svg>
